<mxfile host="Electron" agent="Mozilla/5.0 (Windows NT 10.0; Win64; x64) AppleWebKit/537.36 (KHTML, like Gecko) draw.io/26.0.15 Chrome/132.0.6834.196 Electron/34.2.0 Safari/537.36" version="26.0.15">
  <diagram name="Page-1" id="lbO7AnzXE1gFK-arGTq2">
    <mxGraphModel dx="2049" dy="1194" grid="1" gridSize="10" guides="1" tooltips="1" connect="1" arrows="1" fold="1" page="1" pageScale="1" pageWidth="1920" pageHeight="1200" math="0" shadow="0">
      <root>
        <mxCell id="0" />
        <mxCell id="1" parent="0" />
        <mxCell id="w1Z-9j3BRgKVdoOhy8gg-17" value="" style="group" parent="1" vertex="1" connectable="0">
          <mxGeometry x="450" y="270" width="360" height="100" as="geometry" />
        </mxCell>
        <mxCell id="w1Z-9j3BRgKVdoOhy8gg-8" value="crm_prd_info" style="swimlane;fontStyle=0;childLayout=stackLayout;horizontal=1;startSize=30;horizontalStack=0;resizeParent=1;resizeParentMax=0;resizeLast=0;collapsible=1;marginBottom=0;whiteSpace=wrap;html=1;rounded=1;shadow=0;fillColor=#dae8fc;strokeColor=#6c8ebf;fontSize=26;" parent="w1Z-9j3BRgKVdoOhy8gg-17" vertex="1">
          <mxGeometry x="50" y="30" width="260" height="100" as="geometry" />
        </mxCell>
        <mxCell id="w1Z-9j3BRgKVdoOhy8gg-9" value="prd_key" style="text;strokeColor=none;fillColor=none;align=left;verticalAlign=middle;spacingLeft=4;spacingRight=4;overflow=hidden;points=[[0,0.5],[1,0.5]];portConstraint=eastwest;rotatable=0;whiteSpace=wrap;html=1;fontSize=26;" parent="w1Z-9j3BRgKVdoOhy8gg-8" vertex="1">
          <mxGeometry y="30" width="260" height="40" as="geometry" />
        </mxCell>
        <mxCell id="6_QnMQEb8w-LmWKOrs8Z-1" value="&lt;span style=&quot;font-size: 20px;&quot;&gt;&lt;b&gt;PRODUCT&lt;/b&gt;&lt;/span&gt;" style="text;html=1;strokeColor=#b85450;fillColor=#f8cecc;align=center;verticalAlign=middle;whiteSpace=wrap;overflow=hidden;" vertex="1" parent="w1Z-9j3BRgKVdoOhy8gg-8">
          <mxGeometry y="70" width="260" height="30" as="geometry" />
        </mxCell>
        <mxCell id="w1Z-9j3BRgKVdoOhy8gg-10" value="&lt;font style=&quot;font-size: 20px;&quot;&gt;Current &amp;amp; History Product Information&amp;nbsp;&lt;/font&gt;" style="text;html=1;align=center;verticalAlign=middle;whiteSpace=wrap;rounded=0;" parent="w1Z-9j3BRgKVdoOhy8gg-17" vertex="1">
          <mxGeometry width="360" height="30" as="geometry" />
        </mxCell>
        <mxCell id="w1Z-9j3BRgKVdoOhy8gg-18" value="" style="group" parent="1" vertex="1" connectable="0">
          <mxGeometry x="60" y="320" width="310" height="160" as="geometry" />
        </mxCell>
        <mxCell id="w1Z-9j3BRgKVdoOhy8gg-11" value="crm_sales_details" style="swimlane;fontStyle=0;childLayout=stackLayout;horizontal=1;startSize=30;horizontalStack=0;resizeParent=1;resizeParentMax=0;resizeLast=0;collapsible=1;marginBottom=0;whiteSpace=wrap;html=1;rounded=1;shadow=0;fillColor=#dae8fc;strokeColor=#6c8ebf;fontSize=26;" parent="w1Z-9j3BRgKVdoOhy8gg-18" vertex="1">
          <mxGeometry x="25" y="50" width="260" height="140" as="geometry" />
        </mxCell>
        <mxCell id="w1Z-9j3BRgKVdoOhy8gg-12" value="prd_key" style="text;strokeColor=none;fillColor=none;align=left;verticalAlign=middle;spacingLeft=4;spacingRight=4;overflow=hidden;points=[[0,0.5],[1,0.5]];portConstraint=eastwest;rotatable=0;whiteSpace=wrap;html=1;fontSize=26;" parent="w1Z-9j3BRgKVdoOhy8gg-11" vertex="1">
          <mxGeometry y="30" width="260" height="40" as="geometry" />
        </mxCell>
        <mxCell id="w1Z-9j3BRgKVdoOhy8gg-16" value="cst_id&amp;nbsp;" style="text;strokeColor=none;fillColor=none;align=left;verticalAlign=middle;spacingLeft=4;spacingRight=4;overflow=hidden;points=[[0,0.5],[1,0.5]];portConstraint=eastwest;rotatable=0;whiteSpace=wrap;html=1;fontSize=26;" parent="w1Z-9j3BRgKVdoOhy8gg-11" vertex="1">
          <mxGeometry y="70" width="260" height="40" as="geometry" />
        </mxCell>
        <mxCell id="6_QnMQEb8w-LmWKOrs8Z-11" value="&lt;span style=&quot;font-size: 20px;&quot;&gt;&lt;b&gt;SALES&lt;/b&gt;&lt;/span&gt;" style="text;html=1;strokeColor=#9673a6;fillColor=#e1d5e7;align=center;verticalAlign=middle;whiteSpace=wrap;overflow=hidden;" vertex="1" parent="w1Z-9j3BRgKVdoOhy8gg-11">
          <mxGeometry y="110" width="260" height="30" as="geometry" />
        </mxCell>
        <mxCell id="w1Z-9j3BRgKVdoOhy8gg-13" value="&lt;font style=&quot;font-size: 20px;&quot;&gt;Current &amp;amp; History Product Information &amp;amp; Orders&lt;/font&gt;" style="text;html=1;align=center;verticalAlign=middle;whiteSpace=wrap;rounded=0;" parent="w1Z-9j3BRgKVdoOhy8gg-18" vertex="1">
          <mxGeometry width="310" height="50" as="geometry" />
        </mxCell>
        <mxCell id="w1Z-9j3BRgKVdoOhy8gg-19" style="edgeStyle=orthogonalEdgeStyle;rounded=0;orthogonalLoop=1;jettySize=auto;html=1;entryX=0;entryY=0.5;entryDx=0;entryDy=0;" parent="1" source="w1Z-9j3BRgKVdoOhy8gg-12" target="w1Z-9j3BRgKVdoOhy8gg-9" edge="1">
          <mxGeometry relative="1" as="geometry" />
        </mxCell>
        <mxCell id="w1Z-9j3BRgKVdoOhy8gg-21" value="" style="group" parent="1" vertex="1" connectable="0">
          <mxGeometry x="1060" y="415" width="360" height="100" as="geometry" />
        </mxCell>
        <mxCell id="w1Z-9j3BRgKVdoOhy8gg-22" value="erp_cust_az12" style="swimlane;fontStyle=0;childLayout=stackLayout;horizontal=1;startSize=30;horizontalStack=0;resizeParent=1;resizeParentMax=0;resizeLast=0;collapsible=1;marginBottom=0;whiteSpace=wrap;html=1;rounded=1;shadow=0;fillColor=#fff2cc;strokeColor=#d6b656;fontSize=26;" parent="w1Z-9j3BRgKVdoOhy8gg-21" vertex="1">
          <mxGeometry y="30" width="260" height="100" as="geometry" />
        </mxCell>
        <mxCell id="w1Z-9j3BRgKVdoOhy8gg-23" value="cid" style="text;strokeColor=none;fillColor=none;align=left;verticalAlign=middle;spacingLeft=4;spacingRight=4;overflow=hidden;points=[[0,0.5],[1,0.5]];portConstraint=eastwest;rotatable=0;whiteSpace=wrap;html=1;fontSize=26;" parent="w1Z-9j3BRgKVdoOhy8gg-22" vertex="1">
          <mxGeometry y="30" width="260" height="40" as="geometry" />
        </mxCell>
        <mxCell id="6_QnMQEb8w-LmWKOrs8Z-8" value="&lt;span style=&quot;font-size: 20px;&quot;&gt;&lt;b&gt;CUSTOMER&lt;/b&gt;&lt;/span&gt;" style="text;html=1;strokeColor=#82b366;fillColor=#d5e8d4;align=center;verticalAlign=middle;whiteSpace=wrap;overflow=hidden;" vertex="1" parent="w1Z-9j3BRgKVdoOhy8gg-22">
          <mxGeometry y="70" width="260" height="30" as="geometry" />
        </mxCell>
        <mxCell id="w1Z-9j3BRgKVdoOhy8gg-24" value="&lt;font style=&quot;font-size: 20px;&quot;&gt;Extra Customer Information (Birthdate)&lt;/font&gt;" style="text;html=1;align=center;verticalAlign=middle;whiteSpace=wrap;rounded=0;" parent="w1Z-9j3BRgKVdoOhy8gg-21" vertex="1">
          <mxGeometry x="-45" width="350" height="30" as="geometry" />
        </mxCell>
        <mxCell id="w1Z-9j3BRgKVdoOhy8gg-5" value="&lt;font style=&quot;font-size: 20px;&quot;&gt;Customer Information&lt;/font&gt;" style="text;html=1;align=center;verticalAlign=middle;whiteSpace=wrap;rounded=0;container=0;" parent="1" vertex="1">
          <mxGeometry x="500" y="480" width="220" height="30" as="geometry" />
        </mxCell>
        <mxCell id="w1Z-9j3BRgKVdoOhy8gg-54" value="&lt;span style=&quot;font-size: 26px;&quot;&gt;crm_cust_info&lt;/span&gt;" style="swimlane;fontStyle=0;childLayout=stackLayout;horizontal=1;startSize=30;horizontalStack=0;resizeParent=1;resizeParentMax=0;resizeLast=0;collapsible=1;marginBottom=0;whiteSpace=wrap;html=1;rounded=1;fillColor=#dae8fc;strokeColor=#6c8ebf;" parent="1" vertex="1">
          <mxGeometry x="490" y="510" width="260" height="120" as="geometry" />
        </mxCell>
        <mxCell id="w1Z-9j3BRgKVdoOhy8gg-55" value="cst_id" style="text;strokeColor=none;fillColor=none;align=left;verticalAlign=middle;spacingLeft=4;spacingRight=4;overflow=hidden;points=[[0,0.5],[1,0.5]];portConstraint=eastwest;rotatable=0;whiteSpace=wrap;html=1;fontSize=26;" parent="w1Z-9j3BRgKVdoOhy8gg-54" vertex="1">
          <mxGeometry y="30" width="260" height="30" as="geometry" />
        </mxCell>
        <mxCell id="w1Z-9j3BRgKVdoOhy8gg-56" value="cst_key&amp;nbsp;" style="text;strokeColor=none;fillColor=none;align=left;verticalAlign=middle;spacingLeft=4;spacingRight=4;overflow=hidden;points=[[0,0.5],[1,0.5]];portConstraint=eastwest;rotatable=0;whiteSpace=wrap;html=1;fontSize=26;" parent="w1Z-9j3BRgKVdoOhy8gg-54" vertex="1">
          <mxGeometry y="60" width="260" height="30" as="geometry" />
        </mxCell>
        <mxCell id="6_QnMQEb8w-LmWKOrs8Z-6" value="&lt;span style=&quot;font-size: 20px;&quot;&gt;&lt;b&gt;CUSTOMER&lt;/b&gt;&lt;/span&gt;" style="text;html=1;strokeColor=#82b366;fillColor=#d5e8d4;align=center;verticalAlign=middle;whiteSpace=wrap;overflow=hidden;" vertex="1" parent="w1Z-9j3BRgKVdoOhy8gg-54">
          <mxGeometry y="90" width="260" height="30" as="geometry" />
        </mxCell>
        <mxCell id="w1Z-9j3BRgKVdoOhy8gg-59" style="edgeStyle=orthogonalEdgeStyle;rounded=0;orthogonalLoop=1;jettySize=auto;html=1;entryX=0;entryY=0.5;entryDx=0;entryDy=0;" parent="1" source="w1Z-9j3BRgKVdoOhy8gg-16" target="w1Z-9j3BRgKVdoOhy8gg-55" edge="1">
          <mxGeometry relative="1" as="geometry" />
        </mxCell>
        <mxCell id="w1Z-9j3BRgKVdoOhy8gg-60" style="edgeStyle=orthogonalEdgeStyle;rounded=0;orthogonalLoop=1;jettySize=auto;html=1;entryX=1;entryY=0.5;entryDx=0;entryDy=0;" parent="1" source="w1Z-9j3BRgKVdoOhy8gg-23" target="w1Z-9j3BRgKVdoOhy8gg-56" edge="1">
          <mxGeometry relative="1" as="geometry" />
        </mxCell>
        <mxCell id="w1Z-9j3BRgKVdoOhy8gg-26" value="erp_loc_a101" style="swimlane;fontStyle=0;childLayout=stackLayout;horizontal=1;startSize=30;horizontalStack=0;resizeParent=1;resizeParentMax=0;resizeLast=0;collapsible=1;marginBottom=0;whiteSpace=wrap;html=1;rounded=1;shadow=0;fillColor=#fff2cc;strokeColor=#d6b656;fontSize=26;container=0;" parent="1" vertex="1">
          <mxGeometry x="1080" y="625" width="260" height="95" as="geometry" />
        </mxCell>
        <mxCell id="w1Z-9j3BRgKVdoOhy8gg-27" value="cid" style="text;strokeColor=none;fillColor=none;align=left;verticalAlign=middle;spacingLeft=4;spacingRight=4;overflow=hidden;points=[[0,0.5],[1,0.5]];portConstraint=eastwest;rotatable=0;whiteSpace=wrap;html=1;fontSize=26;container=0;" parent="w1Z-9j3BRgKVdoOhy8gg-26" vertex="1">
          <mxGeometry y="30" width="260" height="35" as="geometry" />
        </mxCell>
        <mxCell id="6_QnMQEb8w-LmWKOrs8Z-7" value="&lt;span style=&quot;font-size: 20px;&quot;&gt;&lt;b&gt;CUSTOMER&lt;/b&gt;&lt;/span&gt;" style="text;html=1;strokeColor=#82b366;fillColor=#d5e8d4;align=center;verticalAlign=middle;whiteSpace=wrap;overflow=hidden;" vertex="1" parent="w1Z-9j3BRgKVdoOhy8gg-26">
          <mxGeometry y="65" width="260" height="30" as="geometry" />
        </mxCell>
        <mxCell id="w1Z-9j3BRgKVdoOhy8gg-28" value="&lt;font style=&quot;font-size: 20px;&quot;&gt;Location of Customer (Country)&lt;/font&gt;" style="text;html=1;align=center;verticalAlign=middle;whiteSpace=wrap;rounded=0;container=0;" parent="1" vertex="1">
          <mxGeometry x="1030" y="595" width="360" height="30" as="geometry" />
        </mxCell>
        <mxCell id="w1Z-9j3BRgKVdoOhy8gg-63" style="edgeStyle=orthogonalEdgeStyle;rounded=0;orthogonalLoop=1;jettySize=auto;html=1;entryX=1;entryY=0.5;entryDx=0;entryDy=0;" parent="1" source="w1Z-9j3BRgKVdoOhy8gg-27" target="w1Z-9j3BRgKVdoOhy8gg-56" edge="1">
          <mxGeometry relative="1" as="geometry" />
        </mxCell>
        <mxCell id="w1Z-9j3BRgKVdoOhy8gg-66" value="erp_px_cat_g1v2" style="swimlane;fontStyle=0;childLayout=stackLayout;horizontal=1;startSize=30;horizontalStack=0;resizeParent=1;resizeParentMax=0;resizeLast=0;collapsible=1;marginBottom=0;whiteSpace=wrap;html=1;rounded=1;shadow=0;fillColor=#fff2cc;strokeColor=#d6b656;fontSize=26;container=0;" parent="1" vertex="1">
          <mxGeometry x="1060" y="270" width="260" height="100" as="geometry" />
        </mxCell>
        <mxCell id="w1Z-9j3BRgKVdoOhy8gg-68" value="id" style="text;strokeColor=none;fillColor=none;align=left;verticalAlign=middle;spacingLeft=4;spacingRight=4;overflow=hidden;points=[[0,0.5],[1,0.5]];portConstraint=eastwest;rotatable=0;whiteSpace=wrap;html=1;fontSize=26;container=0;" parent="w1Z-9j3BRgKVdoOhy8gg-66" vertex="1">
          <mxGeometry y="30" width="260" height="40" as="geometry" />
        </mxCell>
        <mxCell id="6_QnMQEb8w-LmWKOrs8Z-2" value="&lt;span style=&quot;font-size: 20px;&quot;&gt;&lt;b&gt;PRODUCT&lt;/b&gt;&lt;/span&gt;" style="text;html=1;strokeColor=#b85450;fillColor=#f8cecc;align=center;verticalAlign=middle;whiteSpace=wrap;overflow=hidden;" vertex="1" parent="w1Z-9j3BRgKVdoOhy8gg-66">
          <mxGeometry y="70" width="260" height="30" as="geometry" />
        </mxCell>
        <mxCell id="w1Z-9j3BRgKVdoOhy8gg-67" value="&lt;span style=&quot;font-size: 20px;&quot;&gt;Product Categories&lt;/span&gt;" style="text;html=1;align=center;verticalAlign=middle;whiteSpace=wrap;rounded=0;container=0;" parent="1" vertex="1">
          <mxGeometry x="1010" y="240" width="360" height="30" as="geometry" />
        </mxCell>
        <mxCell id="w1Z-9j3BRgKVdoOhy8gg-69" style="edgeStyle=orthogonalEdgeStyle;rounded=0;orthogonalLoop=1;jettySize=auto;html=1;entryX=1;entryY=0.5;entryDx=0;entryDy=0;" parent="1" source="w1Z-9j3BRgKVdoOhy8gg-68" target="w1Z-9j3BRgKVdoOhy8gg-9" edge="1">
          <mxGeometry relative="1" as="geometry" />
        </mxCell>
        <mxCell id="w1Z-9j3BRgKVdoOhy8gg-70" value="" style="rounded=1;whiteSpace=wrap;html=1;arcSize=5;fillColor=none;dashed=1;" parent="1" vertex="1">
          <mxGeometry x="50" y="180" width="750" height="550" as="geometry" />
        </mxCell>
        <mxCell id="w1Z-9j3BRgKVdoOhy8gg-71" value="&lt;font style=&quot;font-size: 35px;&quot;&gt;&lt;b&gt;CRM&lt;/b&gt;&lt;/font&gt;" style="rounded=1;whiteSpace=wrap;html=1;fillColor=#dae8fc;strokeColor=#6c8ebf;" parent="1" vertex="1">
          <mxGeometry x="320" y="160" width="230" height="40" as="geometry" />
        </mxCell>
        <mxCell id="w1Z-9j3BRgKVdoOhy8gg-72" value="" style="rounded=1;whiteSpace=wrap;html=1;arcSize=4;fillColor=none;dashed=1;" parent="1" vertex="1">
          <mxGeometry x="930" y="180" width="590" height="550" as="geometry" />
        </mxCell>
        <mxCell id="w1Z-9j3BRgKVdoOhy8gg-73" value="&lt;font style=&quot;font-size: 35px;&quot;&gt;&lt;b&gt;ERP&lt;/b&gt;&lt;/font&gt;" style="rounded=1;whiteSpace=wrap;html=1;fillColor=#fff2cc;strokeColor=#d6b656;" parent="1" vertex="1">
          <mxGeometry x="1075" y="160" width="230" height="40" as="geometry" />
        </mxCell>
      </root>
    </mxGraphModel>
  </diagram>
</mxfile>
